<?xml version="1.0" encoding="utf-8"?>
<!-- Generator: Adobe Illustrator 19.0.0, SVG Export Plug-In . SVG Version: 6.00 Build 0)  -->
<svg version="1.1" id="图层_1" xmlns="http://www.w3.org/2000/svg" xmlns:xlink="http://www.w3.org/1999/xlink" x="0px" y="0px"
	 viewBox="-801 93.4 98.2 98.1" style="enable-background:new -801 93.4 98.2 98.1;" xml:space="preserve">
<style type="text/css">
	.st0{fill:#fcdfdd;}
</style>
<g>
	<g>
		<path class="st0" d="M-702.9,136.5c0,17.8,0,35.5,0,53.2c0,1.5-0.3,1.8-1.8,1.8c-31.5-0.1-63-0.1-94.5,0c-1.5,0-1.8-0.3-1.8-1.8
			c0.1-17.7,0-35.5,0-53.2c0.6-0.2,1.2-0.5,1.9-0.7c4.6-1.3,9.6,0.3,11.7,3.9c2.7,4.7,5.5,9.3,7.8,14.2c4.1,8.7,8.9,17,13.4,25.4
			c4.8,8.9,15.5,11.3,23.7,5.5c2.6-1.8,4.1-4.3,5.5-7c6.4-11.9,12.7-23.8,19.1-35.7C-714.3,135.6-709.9,133.9-702.9,136.5z"/>
		<path class="st0" d="M-800.9,128.5c0-11.2,0-22.3,0-33.5c0-1.1,0.1-1.6,1.5-1.6c31.7,0.1,63.4,0.1,95.1,0c1.4,0,1.5,0.5,1.5,1.6
			c0,11,0,22,0,33c-3.5,1.5-7.2,1.2-10.8,1.4c-3.4,0.2-6,1.2-7.8,4.4c-2,3.6-3.9,3.5-5.8-0.1c-2.8-5.1-5.6-10.2-8.4-15.3
			c-2.7-5-5.2-10.2-8.2-15.1c-3.9-6.5-11.8-6.4-15.9,0c-0.4,0.6-0.8,1.3-1.1,1.9c-5.2,9.6-10.4,19.2-15.6,28.7
			c-1.9,3.4-3.7,3.5-5.5,0.1c-1.9-3.6-4.9-4.7-8.6-4.8C-794.1,129-797.5,129.4-800.9,128.5z"/>
		<path class="st0" d="M-751.7,182c-2.1-0.1-3.9-0.9-5.4-2.3c-1.7-1.7-3-3.6-4.1-5.7c-3.8-7.1-7.5-14.3-11.3-21.4
			c-1.7-3.1-1.8-6,0-9.2c5.8-10.7,11.4-21.5,17.2-32.2c0.7-1.4,1.5-3,3.4-3c1.9-0.1,2.6,1.6,3.4,3c5.9,11,11.8,22,17.7,33
			c1.3,2.5,1.3,4.9,0,7.4c-4.1,7.7-8.1,15.5-12.2,23.2c-1.1,2-2.4,3.8-4,5.4C-748.4,181.3-750,181.8-751.7,182z M-751.7,135.4
			c2.4,0,4.1-1.3,4.1-3.1c0-1.9-1.8-3.2-4.3-3.3c-2.5,0-4.4,1.3-4.4,3.2C-756.3,134.1-754.3,135.4-751.7,135.4z"/>
	</g>
</g>
</svg>
